<svg
  xmlns="http://www.w3.org/2000/svg"
  role="img"
  aria-labelledby="title desc"
  viewBox="0 0 1280 640"
  width="1280"
  height="640"
>
  <title id="title">litestar-auth repository social preview</title>
  <desc id="desc">
    A GitHub social preview card for litestar-auth with a star, shield, and keyhole mark.
  </desc>
  <defs>
    <linearGradient id="page-bg" x1="0" y1="0" x2="1280" y2="640" gradientUnits="userSpaceOnUse">
      <stop offset="0" stop-color="#fbfdff" />
      <stop offset="0.55" stop-color="#f7fbff" />
      <stop offset="1" stop-color="#fff9ef" />
    </linearGradient>
    <linearGradient id="mark-fill" x1="342" y1="146" x2="514" y2="342" gradientUnits="userSpaceOnUse">
      <stop offset="0" stop-color="#18b6d9" />
      <stop offset="0.58" stop-color="#3346d3" />
      <stop offset="1" stop-color="#16213e" />
    </linearGradient>
    <filter id="mark-shadow" x="-20%" y="-20%" width="140%" height="145%" color-interpolation-filters="sRGB">
      <feDropShadow dx="0" dy="18" stdDeviation="20" flood-color="#16213e" flood-opacity="0.16" />
    </filter>
    <filter id="text-shadow" x="-5%" y="-20%" width="110%" height="140%" color-interpolation-filters="sRGB">
      <feDropShadow dx="0" dy="4" stdDeviation="7" flood-color="#16213e" flood-opacity="0.08" />
    </filter>
  </defs>

  <rect width="1280" height="640" fill="url(#page-bg)" />
  <path
    fill="#eaf8fb"
    d="M0 508C174 458 290 528 433 504c166-28 225-147 400-133 171 13 267 133 447 71v198H0V508Z"
  />
  <path
    fill="#fff2d5"
    fill-opacity="0.7"
    d="M0 541c122-39 223-20 317 4 123 31 235 62 397-14 203-95 349-36 566 19v90H0v-99Z"
  />

  <g transform="translate(544 96)" filter="url(#mark-shadow)">
    <path
      fill="url(#mark-fill)"
      d="M96 0 126.6 61.98 195 71.92l-49.5 48.25 11.68 68.13L96 156.13 34.82 188.3l11.68-68.13L-3 71.92l68.4-9.94L96 0Z"
    />
    <path
      fill="#ffffff"
      fill-opacity="0.96"
      d="M96 57.28 147.25 76.46v42.62c0 40.25-23.54 64.53-51.25 76.36-27.71-11.83-51.25-36.11-51.25-76.36V76.46L96 57.28Z"
    />
    <path
      fill="#16213e"
      d="m96 70.6 37.88 14.18v34.3c0 30.1-15.96 49.39-37.88 59.3-21.92-9.91-37.88-29.2-37.88-59.3v-34.3L96 70.6Z"
    />
    <circle cx="96" cy="111.88" r="16.72" fill="#ffffff" />
    <path fill="#ffffff" d="M89.87 125.25h12.26l6.69 34.54H83.18l6.69-34.54Z" />
    <circle cx="168.44" cy="52.83" r="13.38" fill="#f5a524" />
  </g>

  <g filter="url(#text-shadow)">
    <text
      x="300"
      y="390"
      fill="#16213e"
      font-family="Inter, ui-sans-serif, system-ui, -apple-system, BlinkMacSystemFont, 'Segoe UI', sans-serif"
      font-size="88"
      font-weight="800"
      letter-spacing="0"
    >litestar<tspan fill="#18b6d9">-</tspan>auth</text>
    <text
      x="346"
      y="462"
      fill="#334155"
      font-family="Inter, ui-sans-serif, system-ui, -apple-system, BlinkMacSystemFont, 'Segoe UI', sans-serif"
      font-size="34"
      font-weight="500"
      letter-spacing="0"
    >Authentication and authorization for Litestar</text>
    <text
      x="402"
      y="522"
      fill="#5b6474"
      font-family="Inter, ui-sans-serif, system-ui, -apple-system, BlinkMacSystemFont, 'Segoe UI', sans-serif"
      font-size="24"
      font-weight="600"
      letter-spacing="0"
    >JWT · SQLAlchemy · Redis · OAuth · TOTP</text>
  </g>
</svg>
